<?xml version="1.0" encoding="UTF-8" standalone="no"?>
<!-- Created with Inkscape (http://www.inkscape.org/) -->

<svg
   xmlns:dc="http://purl.org/dc/elements/1.1/"
   xmlns:cc="http://creativecommons.org/ns#"
   xmlns:rdf="http://www.w3.org/1999/02/22-rdf-syntax-ns#"
   xmlns:svg="http://www.w3.org/2000/svg"
   xmlns="http://www.w3.org/2000/svg"
   xmlns:xlink="http://www.w3.org/1999/xlink"
   xmlns:sodipodi="http://sodipodi.sourceforge.net/DTD/sodipodi-0.dtd"
   xmlns:inkscape="http://www.inkscape.org/namespaces/inkscape"
   version="1.0"
   width="35.396038"
   height="25.000032"
   id="svg1361"
   sodipodi:docname="icon.svg"
   inkscape:version="0.92.3 (2405546, 2018-03-11)">
  <metadata
     id="metadata3733">
    <rdf:RDF>
      <cc:Work
         rdf:about="">
        <dc:format>image/svg+xml</dc:format>
        <dc:type
           rdf:resource="http://purl.org/dc/dcmitype/StillImage" />
        <dc:title></dc:title>
      </cc:Work>
    </rdf:RDF>
  </metadata>
  <sodipodi:namedview
     pagecolor="#ffffff"
     bordercolor="#666666"
     borderopacity="1"
     objecttolerance="10"
     gridtolerance="10"
     guidetolerance="10"
     inkscape:pageopacity="0"
     inkscape:pageshadow="2"
     inkscape:window-width="1920"
     inkscape:window-height="1001"
     id="namedview3731"
     showgrid="false"
     inkscape:zoom="16.16"
     inkscape:cx="-3.4415166"
     inkscape:cy="17.267157"
     inkscape:window-x="-9"
     inkscape:window-y="-9"
     inkscape:window-maximized="1"
     inkscape:current-layer="svg1361" />
  <defs
     id="defs1363">
    <linearGradient
       inkscape:collect="always"
       id="linearGradient4591">
      <stop
         style="stop-color:#000000;stop-opacity:1;"
         offset="0"
         id="stop4587" />
      <stop
         style="stop-color:#000000;stop-opacity:0;"
         offset="1"
         id="stop4589" />
    </linearGradient>
    <radialGradient
       inkscape:collect="always"
       xlink:href="#linearGradient4591"
       id="radialGradient4609"
       cx="8.2822552"
       cy="12.500016"
       fx="8.2822552"
       fy="12.500016"
       r="8.2822552"
       gradientTransform="matrix(1,0,0,1.5092527,0,-6.3656664)"
       gradientUnits="userSpaceOnUse" />
    <radialGradient
       inkscape:collect="always"
       xlink:href="#linearGradient4591"
       id="radialGradient4617"
       cx="8.2822552"
       cy="12.500016"
       fx="8.2822552"
       fy="12.500016"
       r="8.2822552"
       gradientTransform="matrix(1,0,0,1.5092527,0,-6.3656664)"
       gradientUnits="userSpaceOnUse" />
    <radialGradient
       inkscape:collect="always"
       xlink:href="#linearGradient4591"
       id="radialGradient4625"
       cx="8.2822552"
       cy="12.500016"
       fx="8.2822552"
       fy="12.500016"
       r="8.2822552"
       gradientTransform="matrix(1,0,0,1.5092527,0,-6.3656664)"
       gradientUnits="userSpaceOnUse" />
    <radialGradient
       inkscape:collect="always"
       xlink:href="#linearGradient4591"
       id="radialGradient4633"
       cx="8.2822552"
       cy="12.500016"
       fx="8.2822552"
       fy="12.500016"
       r="8.2822552"
       gradientTransform="matrix(1,0,0,1.5092527,0,-6.3656664)"
       gradientUnits="userSpaceOnUse" />
  </defs>
  <rect
     id="rect17"
     width="35.396038"
     height="25.000004"
     x="0"
     y="0"
     style="stroke-width:0.99630708;fill:#ffffff;fill-opacity:1" />
  <g
     id="layer1"
     style="fill:#000000;fill-opacity:1">
    <g
       transform="matrix(1,0,0,1.030698,-309.364,-543.8647)"
       style="fill:#000000;fill-opacity:1"
       id="g2972">
      <path
         d="m 325.90302,546.76398 c -0.12737,1.97201 -1.22917,3.98371 -3.13938,4.71893 -1.63784,0.60559 -3.70194,0.69758 -5.12564,-0.45521 -1.06523,-0.78819 -1.47232,-2.58174 -0.35817,-3.50774 1.06424,-1.00807 3.11166,-0.0988 2.98908,1.3843 0.41714,1.01796 -1.74604,1.64322 -0.60874,2.35684 1.30838,0.34078 2.64238,-0.72795 2.97825,-1.97006 0.48818,-1.78242 0.46229,-3.70605 0.0346,-5.4983 -0.23006,-0.88375 -0.77572,-2.25629 -1.94274,-1.89848 -1.52742,0.35464 -2.38442,1.86348 -2.86527,3.23574 -0.27823,-1.94469 -1.50112,-3.62638 -2.907,-4.938 0,3.90634 10e-6,7.81267 10e-6,11.71901 l -0.875,0.005 c 0,-8.02801 0,-16.21894 0,-24.24695 l 0.875,-7.4e-4 c 0,3.85101 0,7.86115 0,11.71215 1.39426,-1.29233 2.62233,-2.94626 2.88599,-4.875 0.50375,1.43855 1.47846,3.02697 3.126,3.25 1.2109,0.0666 1.55686,-1.40997 1.79844,-2.32961 0.31747,-1.73801 0.35213,-3.58649 -0.19876,-5.28087 -0.39407,-1.19137 -1.68926,-2.1668 -2.96579,-1.84691 -1.03122,0.75151 1.00319,1.29514 0.65929,2.26369 0.21966,1.39098 -1.50212,2.47875 -2.68879,1.7579 -1.28535,-0.70415 -1.19166,-2.59825 -0.20102,-3.51379 0.67434,-0.69656 1.95739,-1.14627 2.89729,-1.1389 0.95866,0.008 1.51794,0.0784 2.37606,0.37773 1.92127,0.68514 3.0821,2.65999 3.2401,4.62773 0.29034,2.23138 -0.95805,4.66624 -3.06113,5.54729 -1.36763,0.53041 -2.9496,0.0714 -3.99869,-0.90226 -0.17148,0.97707 -0.60684,1.9093 -1.14626,2.5836 0.43558,0.70989 0.90669,1.85235 1.14717,2.24374 1.31334,-1.19627 3.63352,-1.34055 5.00057,-0.15457 1.39201,1.14212 2.2602,2.96032 2.07454,4.77421 z"
         style="fill:#000000;fill-opacity:1"
         id="path2974"
         inkscape:connector-curvature="0" />
    </g>
    <g
       transform="matrix(1,0,0,1.030928,-309.364,-543.9805)"
       style="fill:#000000;fill-opacity:1"
       id="g2976">
      <path
         d="m 312.208,551.911 h -2.844 v -24.25 h 2.844 z"
         style="fill:#000000;fill-opacity:1"
         id="path2978"
         inkscape:connector-curvature="0" />
    </g>
  </g>
  <g
     id="layer1-0"
     transform="matrix(-1.1197019,0.0476971,0.01825457,1.2414029,33.102305,-0.04482234)"
     style="fill:#000000;fill-opacity:1">
    <g
       id="g2883"
       style="fill:#000000;fill-opacity:1"
       transform="translate(-230.9546,-533.6597)" />
    <g
       id="g2887"
       style="fill:#000000;fill-opacity:1"
       transform="translate(-230.9546,-533.6597)">
      <path
         id="path2889"
         style="fill:#000000;fill-opacity:1"
         d="m 247.32756,543.07963 c 0.008,0.36967 -0.14923,0.73944 -0.43121,0.98083 -0.36025,0.32891 -0.90945,0.39628 -1.3583,0.22887 -0.44511,-0.17184 -0.77393,-0.61235 -0.79903,-1.09083 -0.0349,-0.37399 0.0921,-0.76081 0.35555,-1.03089 0.24963,-0.27846 0.6336,-0.4051 1.00145,-0.3835 0.48385,0.0133 0.92314,0.34301 1.12317,0.77515 0.074,0.16275 0.10881,0.34192 0.10837,0.52037 z"
         inkscape:connector-curvature="0" />
    </g>
    <g
       id="g2891"
       style="fill:#000000;fill-opacity:1"
       transform="translate(-230.9546,-533.6597)">
      <path
         id="path2893"
         style="fill:#000000;fill-opacity:1"
         d="m 243.979,540.86798 c 0.045,2.8246 -1.2154,5.57017 -3.21431,7.53651 -2.48942,2.48828 -5.74678,4.07085 -9.06707,5.12812 -0.44172,0.23921 -1.10792,-0.0762 -0.41212,-0.40117 1.33796,-0.60855 2.72769,-1.13094 3.96014,-1.95064 2.72235,-1.6833 5.01959,-4.33406 5.57715,-7.56226 0.32492,-1.96502 0.23445,-4.01059 -0.25795,-5.94002 -0.36132,-1.41859 -1.34451,-2.88302 -2.90132,-3.09265 -1.41284,-0.21626 -2.91467,0.27318 -3.92295,1.29506 -0.26516,0.26874 -0.78141,1.0131 -0.69622,1.86654 0.60202,-0.47279 0.56093,-0.42015 1.05465,-0.6403 1.13673,-0.50686 2.64449,0.21388 2.928,1.46555 0.30209,1.15023 0.0685,2.61366 -1.06664,3.22688 -1.18524,0.64453 -2.93424,0.37778 -3.59586,-0.89094 -1.09534,-1.95448 -0.49303,-4.62673 1.27752,-5.98295 1.80312,-1.49647 4.43407,-1.55482 6.55761,-0.78709 2.18456,0.81249 3.48666,3.07621 3.69728,5.31832 0.0573,0.46798 0.0821,0.93974 0.0821,1.41104 z"
         inkscape:connector-curvature="0" />
    </g>
  </g>
</svg>
